<svg width="645" height="640" viewBox="0 0 645 640" fill="none" xmlns="http://www.w3.org/2000/svg">
<path d="M450.872 107.23C424.054 123.319 382.935 212.705 365.057 260.079C363.716 264.996 363.18 275.364 371.761 277.509C382.488 280.191 385.17 277.509 395.897 274.828C406.624 272.146 454.895 249.353 491.099 227.9C522.774 209.132 538.029 191.699 546.074 176.951C549.203 165.331 552.511 139.945 540.711 120.638C528.912 101.331 505.402 94.7161 495.122 93.8223C473.667 95.163 470.419 95.5035 450.872 107.23Z" fill="#FE6F00" stroke="#FE6F00"/>
<path d="M566.609 260.013C536.331 252.182 443.771 285.561 397.46 306.043C393.015 308.535 385.247 315.425 389.737 323.046C395.348 332.573 399.141 332.604 408.575 338.369C418.01 344.134 468.113 362.556 508.797 373.316C544.392 382.731 567.518 381.379 583.674 376.77C594.152 370.85 614.569 355.404 620.058 333.453C625.546 311.501 613.773 290.105 607.201 282.15C591.198 267.798 588.677 265.721 566.609 260.013Z" fill="#FE6F00" stroke="#FE6F00"/>
<path d="M538.861 449.662C523.209 422.588 434.499 380.023 387.418 361.377C382.524 359.956 372.165 359.252 369.88 367.796C367.024 378.478 369.662 381.203 372.169 391.971C374.676 402.74 396.682 451.372 417.544 487.918C435.797 519.891 452.979 535.427 467.596 543.711C479.165 547.028 504.495 550.748 523.993 539.265C543.491 527.782 550.487 504.384 551.548 494.121C550.557 472.649 550.269 469.395 538.861 449.662Z" fill="#FE6F00" stroke="#FE6F00"/>
<path d="M380.123 561.746C388.02 531.487 354.839 438.862 334.456 392.51C331.973 388.059 325.1 380.277 317.468 384.75C307.929 390.34 307.89 394.132 302.104 403.554C296.318 412.976 277.787 463.035 266.938 503.694C257.446 539.265 258.748 562.393 263.322 578.558C269.219 589.048 284.622 609.497 306.563 615.032C328.504 620.568 349.928 608.842 357.897 602.287C372.284 586.317 374.367 583.8 380.123 561.746Z" fill="#FE6F00" stroke="#FE6F00"/>
<path d="M193.789 529.907C220.676 513.934 262.181 424.727 280.264 377.43C281.626 372.52 282.207 362.154 273.635 359.972C262.92 357.244 260.227 359.914 249.488 362.549C238.75 365.184 190.381 387.768 154.084 409.064C122.328 427.696 106.998 445.062 98.8889 459.776C95.7099 471.382 92.2922 496.753 104.008 516.111C115.724 535.469 139.206 542.185 149.482 543.124C170.942 541.876 174.192 541.549 193.789 529.907Z" fill="#FE6F00" stroke="#FE6F00"/>
<path d="M78.305 378.801C108.572 386.675 201.179 353.427 247.519 333.011C251.968 330.526 259.745 323.647 255.267 316.019C249.669 306.485 245.876 306.448 236.45 300.67C227.023 294.891 176.947 276.398 136.278 265.58C100.696 256.115 77.5685 257.434 61.4055 262.02C50.9191 267.925 30.4801 283.342 24.9606 305.285C19.441 327.229 31.1836 348.642 37.7448 356.606C53.7269 370.981 56.245 373.061 78.305 378.801Z" fill="#FE6F00" stroke="#FE6F00"/>
<path d="M107.168 190.433C122.86 217.484 211.634 259.918 258.742 278.494C263.638 279.907 273.998 280.596 276.27 272.048C279.111 261.363 276.469 258.642 273.946 247.877C271.423 237.112 249.345 188.513 228.428 151.998C210.129 120.051 192.923 104.541 178.294 96.2788C166.72 92.9788 141.385 89.296 121.904 100.808C102.423 112.32 95.4609 135.728 94.4151 145.993C95.4386 167.464 95.731 170.717 107.168 190.433Z" fill="#FE6F00" stroke="#FE6F00"/>
<path d="M258.855 79.6523C251.667 110.088 287.004 201.913 308.464 247.776C311.05 252.167 318.103 259.786 325.628 255.137C335.035 249.325 334.985 245.533 340.55 235.978C346.114 226.424 363.47 175.945 373.366 135.045C382.024 99.261 380.182 76.1703 375.231 60.1163C369.091 49.7668 353.214 29.6833 331.15 24.662C309.086 19.6406 287.942 31.8638 280.128 38.6031C266.118 54.9052 264.095 57.4696 258.855 79.6523Z" fill="#FE6F00" stroke="#FE6F00"/>
</svg>
